<?xml version="1.0" standalone="no"?>
<!DOCTYPE svg PUBLIC "-//W3C//DTD SVG 20010904//EN"
 "http://www.w3.org/TR/2001/REC-SVG-20010904/DTD/svg10.dtd">
<svg version="1.0" xmlns="http://www.w3.org/2000/svg"
 width="1080.000000pt" height="1080.000000pt" viewBox="0 0 1080.000000 1080.000000"
 preserveAspectRatio="xMidYMid meet">
<metadata>
Created by potrace 1.11, written by Peter Selinger 2001-2013
</metadata>
<g transform="translate(0.000000,1080.000000) scale(0.100000,-0.100000)"
fill="#000000" stroke="none">
<path d="M8765 7082 c-106 -38 -187 -106 -325 -272 -208 -251 -348 -467 -490
-756 -153 -312 -249 -603 -329 -1000 -33 -164 -66 -240 -144 -335 -52 -62
-201 -194 -287 -254 -65 -45 -146 -33 -170 26 -13 30 6 86 93 274 30 66 93
203 140 305 47 102 108 235 137 295 68 144 90 200 90 231 0 66 -74 134 -146
134 -34 0 -57 -10 -117 -50 -85 -57 -237 -211 -268 -272 -24 -48 -20 -71 20
-122 36 -45 39 -35 -74 -276 -187 -400 -190 -406 -273 -489 -56 -55 -98 -87
-152 -113 -116 -57 -177 -57 -258 2 -58 42 -86 100 -79 162 9 71 53 146 236
403 543 760 873 1326 957 1645 41 157 8 251 -111 313 -153 80 -341 -48 -618
-421 -295 -397 -491 -797 -621 -1265 -40 -143 -47 -176 -81 -362 -36 -191 -76
-276 -188 -392 -101 -105 -195 -181 -235 -189 -22 -5 -35 -1 -51 15 -74 74 48
525 250 921 26 52 50 109 53 125 7 42 -25 92 -71 111 -40 17 -73 12 -114 -17
-45 -32 -125 -47 -209 -40 -120 10 -292 5 -335 -9 -96 -31 -291 -168 -429
-300 -162 -156 -278 -339 -342 -540 -64 -202 -92 -245 -225 -349 -73 -56 -114
-70 -150 -51 -66 35 -60 57 148 595 169 435 183 477 183 536 0 39 -5 53 -30
78 -58 57 -194 65 -289 16 -100 -51 -314 -246 -448 -407 -40 -48 -72 -78 -84
-78 -46 0 -38 20 405 910 129 261 272 545 316 630 44 85 80 167 80 181 0 15
-10 39 -22 54 -20 26 -25 27 -76 22 -110 -12 -202 -75 -269 -187 -25 -40 -256
-503 -301 -600 -16 -36 -51 -109 -76 -163 -25 -55 -46 -100 -46 -102 0 -2 -18
-43 -41 -92 -90 -194 -333 -768 -434 -1028 -31 -79 -104 -225 -134 -270 -33
-48 -132 -144 -185 -177 -92 -59 -196 -46 -273 34 -53 57 -143 192 -149 225
-9 48 10 70 138 167 202 151 323 275 440 454 75 113 98 166 100 231 4 124 -74
196 -182 168 -51 -13 -76 -41 -105 -116 -58 -151 -115 -221 -338 -410 -161
-137 -197 -161 -240 -161 -35 0 -35 0 39 158 30 63 64 136 76 161 11 25 66
143 120 261 225 485 486 1065 514 1143 12 33 12 41 -2 62 -22 33 -51 35 -109
7 -125 -62 -223 -145 -263 -225 -23 -47 -33 -70 -157 -346 -74 -165 -277 -613
-358 -791 -14 -30 -62 -138 -107 -240 -46 -102 -95 -212 -110 -245 -62 -136
-75 -165 -122 -275 -72 -167 -163 -399 -182 -462 -15 -52 -15 -74 -1 -119 14
-45 154 -84 213 -60 35 15 52 43 87 146 24 72 146 370 165 404 5 10 20 -4 50
-50 157 -234 312 -380 458 -431 97 -34 227 -22 344 33 23 10 36 10 70 -1 124
-37 163 -11 308 202 163 239 387 537 581 771 54 65 106 129 116 142 22 30 66
38 71 13 2 -9 -20 -70 -49 -135 -119 -273 -192 -496 -203 -626 -7 -71 8 -145
38 -189 33 -50 107 -95 168 -103 156 -22 292 6 382 78 118 94 174 97 276 16
72 -58 170 -55 295 8 96 49 171 110 317 259 l138 139 0 -37 c0 -52 19 -137 40
-178 43 -83 141 -146 242 -157 108 -11 258 67 393 203 98 99 108 100 166 9 66
-105 148 -148 275 -146 134 2 293 53 419 136 37 25 78 45 90 45 11 0 37 -12
56 -26 19 -15 62 -39 96 -55 182 -84 430 7 663 245 30 31 58 56 62 56 4 0 21
-27 38 -60 41 -81 94 -138 155 -166 121 -57 381 -9 552 101 85 56 109 56 193
5 178 -110 324 -91 576 76 147 97 232 212 256 346 19 107 -19 210 -71 193 -11
-3 -41 -31 -68 -63 -140 -164 -174 -200 -238 -249 -120 -91 -178 -102 -237
-42 -39 38 -37 49 45 220 36 74 89 188 120 254 30 66 70 154 90 195 176 379
187 407 187 455 0 43 -4 52 -39 85 -55 52 -90 57 -165 22 -154 -73 -337 -260
-336 -344 1 -13 14 -39 30 -58 17 -19 30 -45 30 -58 0 -13 -32 -90 -71 -170
-40 -81 -96 -200 -125 -266 -30 -65 -66 -139 -81 -165 -58 -101 -216 -237
-312 -269 -72 -25 -143 -10 -199 42 -54 48 -65 110 -42 236 10 53 21 77 65
135 197 262 486 682 669 973 53 84 96 154 96 156 0 2 23 43 51 92 70 121 160
302 208 418 96 231 113 341 66 422 -51 87 -174 125 -280 86z m-30 -364 c-85
-259 -219 -520 -480 -938 -313 -500 -302 -486 -270 -348 76 331 381 924 618
1203 64 75 138 147 144 141 3 -3 -3 -29 -12 -58z m-1705 -63 c17 -9 30 -17 30
-20 0 -2 -27 -68 -60 -147 -72 -169 -178 -376 -285 -555 -112 -185 -455 -696
-463 -688 -2 2 10 51 27 109 89 302 247 625 474 966 76 115 240 349 245 350 2
0 16 -7 32 -15z m-1700 -1419 c0 -10 -112 -204 -168 -291 -132 -205 -281 -380
-478 -565 -107 -100 -134 -120 -162 -120 -63 0 -67 48 -16 176 160 398 365
630 673 765 72 32 151 50 151 35z"/>
<path d="M9340 6501 c-112 -46 -194 -167 -195 -289 0 -59 2 -66 33 -93 42 -38
88 -38 167 -1 157 75 244 285 154 374 -33 34 -89 37 -159 9z"/>
<path d="M7639 6364 c-92 -27 -188 -143 -214 -259 -20 -88 13 -146 91 -161 66
-12 103 3 169 69 87 88 117 142 123 227 4 66 3 70 -26 99 -17 17 -39 31 -49
32 -10 0 -25 2 -33 3 -8 2 -36 -3 -61 -10z"/>
</g>
</svg>
